<?xml version="1.0" encoding="UTF-8"?>
<svg version="1.1" width="27px" height="19px" style="shape-rendering:geometricPrecision; text-rendering:geometricPrecision; image-rendering:optimizeQuality; fill-rule:evenodd; clip-rule:evenodd" xmlns:xlink="http://www.w3.org/1999/xlink">
<g><path style="opacity:0.963" fill="#ff910e" d="M -0.5,-0.5 C 5.83333,-0.5 12.1667,-0.5 18.5,-0.5C 18.5,0.5 18.5,1.5 18.5,2.5C 12.1667,2.5 5.83333,2.5 -0.5,2.5C -0.5,1.5 -0.5,0.5 -0.5,-0.5 Z"/></g>
<g><path style="opacity:0.973" fill="#ff910f" d="M -0.5,7.5 C 8.5,7.5 17.5,7.5 26.5,7.5C 26.5,8.5 26.5,9.5 26.5,10.5C 17.5,10.5 8.5,10.5 -0.5,10.5C -0.5,9.5 -0.5,8.5 -0.5,7.5 Z"/></g>
<g><path style="opacity:0.963" fill="#ff910e" d="M -0.5,15.5 C 5.83333,15.5 12.1667,15.5 18.5,15.5C 18.5,16.5 18.5,17.5 18.5,18.5C 12.1667,18.5 5.83333,18.5 -0.5,18.5C -0.5,17.5 -0.5,16.5 -0.5,15.5 Z"/></g>
</svg>
